# xmcd
#
# Track frame offsets:
#	150
#	13569
#	26625
#	40940
#	52539
#	70011
#	82598
#	97152
#	113425
#	127895
#	142945
#	155992
#	168367
#	181590
#	200118
#	217032
#	233538
#	246742
#	257051
#	271105
#
# Disc length: 3822 seconds
#
# Revision: 0
# Processed by: cddbd v1.5.2PL0 Copyright (c) Steve Scherf et al.
# Submitted via: MusicManager 7.3.0.0 
#
DISCID=050eec14
DTITLE=VERN GOSDIN - TILL THE END and NEVER MY LOVE
DYEAR=2012
DGENRE=country
TTITLE0=HANGIN' ON
TTITLE1=MOTHER COUNTRY MUSIC
TTITLE2=IT STARTED ALL OVER AGAIN
TTITLE3=THE CHOKIN' KIND
TTITLE4=THE FIRST TIME EVER I SAW YOUR FACE
TTITLE5=TILL THE END
TTITLE6=YESTERDAY'S GONE
TTITLE7=WOMAN, SENSUOUS WOMAN
TTITLE8=ANSWERS TO MY QUESTIONS
TTITLE9=WE MADE BEAUTIFUL MUSIC TOGETHER
TTITLE10=NEVER MY LOVE
TTITLE11=CATCH THE WIND
TTITLE12=ANITA, YOU'RE DREAMING
TTITLE13=WHEN I NEED YOU
TTITLE14=I SURE CAN LOVE YOU
TTITLE15=BREAK MY MIND
TTITLE16=FORGET YESTERDAY
TTITLE17=WITHOUT YOU THERE'S A SADNESS IN MY SONG
TTITLE18=THE LADY, SHE'S RIGHT
TTITLE19=SOMETHING'S WRONG IN CALIFORNIA
EXTD=
EXTT0=
EXTT1=
EXTT2=
EXTT3=
EXTT4=
EXTT5=
EXTT6=
EXTT7=
EXTT8=
EXTT9=
EXTT10=
EXTT11=
EXTT12=
EXTT13=
EXTT14=
EXTT15=
EXTT16=
EXTT17=
EXTT18=
EXTT19=
PLAYORDER=
